<?xml version="1.0" encoding="utf-8"?>
<!-- Generator: Adobe Illustrator 16.0.0, SVG Export Plug-In . SVG Version: 6.00 Build 0)  -->
<!DOCTYPE svg PUBLIC "-//W3C//DTD SVG 1.1//EN" "http://www.w3.org/Graphics/SVG/1.1/DTD/svg11.dtd">
<svg version="1.1" id="Layer_1" xmlns="http://www.w3.org/2000/svg" xmlns:xlink="http://www.w3.org/1999/xlink" x="0px" y="0px"
	 width="126.447px" height="264.193px" viewBox="0 0 126.447 264.193" enable-background="new 0 0 126.447 264.193"
	 xml:space="preserve">
<g>
	<path fill="#FFFFFF" d="M66.306,92.712V78.536l4.006,4.006c1.232,1.233,3.081,1.233,4.314,0c1.234-1.233,1.234-3.082,0-4.314
		l-9.245-9.245c-1.232-1.233-3.082-1.233-4.314,0l-9.245,9.245c-0.616,0.616-0.925,1.387-0.925,2.157
		c0,0.77,0.309,1.541,0.925,2.157c1.232,1.233,3.082,1.233,4.315,0l4.006-4.006v14.022"/>
	<path fill="#FFFFFF" d="M60.142,89.359v14.175l-4.005-4.006c-1.233-1.232-3.083-1.232-4.315,0c-1.233,1.232-1.233,3.083,0,4.315
		l9.246,9.243c1.232,1.233,3.082,1.233,4.314,0l9.245-9.243c0.615-0.617,0.925-1.388,0.925-2.158s-0.31-1.541-0.925-2.157
		c-1.233-1.232-3.082-1.232-4.314,0l-4.006,4.006V89.513"/>
</g>
<path fill="#FFFFFF" d="M95.633,264.193H30.815C13.824,264.193,0,250.369,0,233.378V79.609c0-16.991,13.824-30.815,30.815-30.815
	h64.818c16.99,0,30.814,13.824,30.814,30.815v153.77C126.447,250.369,112.623,264.193,95.633,264.193z M30.815,58.018
	c-11.906,0-21.591,9.686-21.591,21.591v153.77c0,11.904,9.686,21.591,21.591,21.591h64.818c11.905,0,21.591-9.687,21.591-21.591
	V79.609c0-11.905-9.686-21.591-21.591-21.591H30.815z"/>
<rect x="6.238" y="123.955" fill="#FFFFFF" width="116.533" height="9.224"/>
<path fill="#FFFFFF" d="M68.606,54.108c0.682-4.539,1.358-9.766,4.49-13.361c3.451-3.96,9.06-5.173,13.673-7.175
	c11.777-5.108,13.794-17.589,14.411-29.124c0.319-5.946-8.906-5.916-9.224,0c-0.302,5.64-0.669,11.651-3.688,16.585
	c-2.573,4.205-8.384,5.278-12.585,7.084c-10.325,4.438-14.37,12.869-15.971,23.539C58.839,57.473,67.727,59.974,68.606,54.108
	L68.606,54.108z"/>
</svg>
