<?xml version="1.0" encoding="utf-8"?>
<!-- Generator: Adobe Illustrator 16.0.0, SVG Export Plug-In . SVG Version: 6.00 Build 0)  -->
<!DOCTYPE svg PUBLIC "-//W3C//DTD SVG 1.1//EN" "http://www.w3.org/Graphics/SVG/1.1/DTD/svg11.dtd">
<svg version="1.1" id="Layer_1" xmlns="http://www.w3.org/2000/svg" xmlns:xlink="http://www.w3.org/1999/xlink" x="0px" y="0px"
	 width="199.788px" height="261.802px" viewBox="0 0 199.788 261.802" enable-background="new 0 0 199.788 261.802"
	 xml:space="preserve">
<path fill="#FFFFFF" d="M87.962,19.842c3.449,0,6.772,1.423,9.357,4.008c1.633,1.632,4.371,5.396,4.371,12.275v43.806v15.383
	l14.059-6.244c2.014-0.894,3.91-1.329,5.798-1.329c2.329,0,3.729,0.379,7.358,4.008c0.551,0.551,1.49,1.726,2.144,2.816l5.519,9.201
	l8.791-6.151c1.772-1.241,3.719-1.844,5.949-1.844c1.888,0,2.851,0,5.914,3.586c1.473,1.958,2.717,4.922,3.514,8.375l2.565,11.121
	l10.688-4.005c1.604-0.601,2.928-0.824,4.887-0.824c2.995,0,5.689,1.069,7.585,3.009c2.278,2.332,3.426,5.958,3.32,10.485
	l-0.003,0.117v0.117v57.54c-0.023,0.066-0.048,0.133-0.071,0.201l-11.641,27.424l-0.795,1.873v2.034v34.978h-103.4v-34.247v-3.859
	l-2.593-2.859l-27.342-30.144v-1.214l-0.365-0.367v-25.599c0-18.225,16.209-25.75,23.178-28.14l6.756-2.317v-7.143V36.125
	C73.505,24.178,82.151,19.842,87.962,19.842 M87.962,9.842c-11.681,0-24.457,9.126-24.457,26.283v79.789
	c-12.777,4.381-29.935,15.696-29.935,37.599v27.537v0.363c0,0.367,0,0.367,0,0.731c0,0.367,0,0.367,0,0.73s0,0.363,0.365,0.73
	c0,0.364,0.365,0.364,0.365,0.731c0,0.363,0.365,0.363,0.365,0.727c0,0.367,0.364,0.367,0.364,0.731c0,0,0,0.367,0.366,0.367
	l28.475,31.393v36.946c0,4.018,3.285,7.301,7.301,7.301H179.97c4.018,0,7.301-3.283,7.301-7.301v-37.677l11.776-27.743
	c0.367-1.094,0.73-1.825,0.73-2.919v-58.41c0.367-15.696-9.951-23.728-20.902-23.728c-2.92,0-5.476,0.366-8.396,1.46
	c-1.095-4.745-2.92-9.126-5.476-12.412c-4.015-4.745-7.49-7.301-13.696-7.301c-4.018,0-8.032,1.096-11.683,3.65
	c-1.095-1.825-2.556-3.65-3.65-4.745c-4.382-4.381-8.221-6.936-14.428-6.936c-3.286,0-6.569,0.729-9.856,2.189V36.125
	c0-9.855-4.015-16.062-7.301-19.347C100.008,12.396,94.169,9.842,87.962,9.842L87.962,9.842z"/>
<path fill="#FFFFFF" d="M58.408,21.904H24.823l9.491-9.492c2.922-2.919,2.922-7.301,0-10.221c-2.919-2.921-7.301-2.921-10.221,0
	L2.191,24.095c-2.921,2.919-2.921,7.301,0,10.221l21.903,21.903c1.46,1.459,3.285,2.19,5.11,2.19s3.65-0.731,5.11-2.19
	c2.922-2.92,2.922-7.301,0-10.221l-9.491-9.492h33.22"/>
<path fill="#FFFFFF" d="M118.095,36.506h33.22l-9.491,9.492c-2.922,2.919-2.922,7.301,0,10.221c1.46,1.459,3.285,2.19,5.11,2.19
	s3.65-0.731,5.11-2.19l21.902-21.903c2.922-2.92,2.922-7.301,0-10.221L152.044,2.191c-2.92-2.921-7.301-2.921-10.221,0
	c-2.922,2.92-2.922,7.301,0,10.221l9.491,9.492H117.73"/>
</svg>
